<svg width="20" height="20" viewBox="0 0 20 20" fill="none" xmlns="http://www.w3.org/2000/svg">
<g id="linkedin">
<path id="Vector" d="M13.3333 6.66602C14.6594 6.66602 15.9312 7.1928 16.8689 8.13048C17.8066 9.06816 18.3333 10.3399 18.3333 11.666V17.4993H15V11.666C15 11.224 14.8244 10.8001 14.5119 10.4875C14.1993 10.1749 13.7754 9.99935 13.3333 9.99935C12.8913 9.99935 12.4674 10.1749 12.1548 10.4875C11.8423 10.8001 11.6667 11.224 11.6667 11.666V17.4993H8.33334V11.666C8.33334 10.3399 8.86013 9.06816 9.79781 8.13048C10.7355 7.1928 12.0073 6.66602 13.3333 6.66602Z" stroke="white" stroke-width="1.5" stroke-linecap="round" stroke-linejoin="round"/>
<path id="Vector_2" d="M4.99999 7.49951H1.66666V17.4995H4.99999V7.49951Z" stroke="white" stroke-width="1.5" stroke-linecap="round" stroke-linejoin="round"/>
<path id="Vector_3" d="M3.33332 4.99935C4.2538 4.99935 4.99999 4.25316 4.99999 3.33268C4.99999 2.41221 4.2538 1.66602 3.33332 1.66602C2.41285 1.66602 1.66666 2.41221 1.66666 3.33268C1.66666 4.25316 2.41285 4.99935 3.33332 4.99935Z" stroke="white" stroke-width="1.5" stroke-linecap="round" stroke-linejoin="round"/>
</g>
</svg>
